<svg width="612" height="131" viewBox="0 0 612 131" xmlns="http://www.w3.org/2000/svg"><title>bandsintown 1.5 clr</title><g fill="none" fill-rule="evenodd"><path d="M166.054 72.44c0-6.883-4.39-11.734-11.13-11.734-6.742 0-11.132 4.85-11.132 11.735 0 6.886 4.39 11.736 11.13 11.736 6.74 0 11.132-4.85 11.132-11.735zm-22.186 12.944h-.157v5.42H136V35h7.71v24.394h.158c2.282-3.986 6.295-6.616 12.274-6.616 9.6 0 17.704 7.333 17.704 19.61 0 12.278-8.105 19.612-17.704 19.612-5.98 0-9.992-2.63-12.274-6.616zM179.41 72.44c0-12.244 8.105-19.558 17.705-19.558 5.98 0 9.992 2.624 12.274 6.6h.157v-5.408h7.71v36.734h-7.71V85.4h-.158c-2.283 3.976-6.295 6.6-12.275 6.6-9.6 0-17.704-7.314-17.704-19.56zm31.168 0c0-6.883-4.39-11.734-11.13-11.734-6.743 0-11.132 4.85-11.132 11.735 0 6.886 4.39 11.736 11.13 11.736 6.742 0 11.132-4.85 11.132-11.735zm50.09-4.183v22.625h-7.7v-21.27c0-6.293-3.143-8.923-8.33-8.923-5.654 0-9.663 3.425-9.663 12.586v17.606h-7.7V54.077h7.7v5.577h.157c2.358-4.222 6.287-6.772 11.865-6.772 7.778 0 13.67 4.222 13.67 15.375zm7.792 4.132c0-12.28 8.104-19.612 17.704-19.612 5.98 0 9.992 2.63 12.275 6.616h.156V35h7.71v55.804h-7.71v-5.42h-.157C296.155 89.37 292.143 92 286.163 92c-9.6 0-17.704-7.334-17.704-19.61zm31.167.05c0-6.883-4.39-11.734-11.13-11.734-6.743 0-11.132 4.85-11.132 11.735 0 6.886 4.39 11.736 11.13 11.736 6.742 0 11.132-4.85 11.132-11.735zm13.358 15.664l3.46-6.916c3.38 1.986 7.236 3.497 11.56 3.497 3.697 0 5.663-1.113 5.663-3.418 0-1.51-.786-2.624-3.854-4.135l-6.605-3.26c-5.506-2.624-7.63-6.36-7.63-10.573 0-6.76 4.955-10.418 12.897-10.418 4.17 0 8.73 1.113 12.583 2.863l-3.145 6.758c-2.753-1.193-6.135-2.386-9.674-2.386-3.38 0-4.48 1.114-4.48 2.783 0 1.75 1.022 2.863 4.167 4.373l6.763 3.26c4.72 2.226 7.235 5.406 7.235 10.336 0 7.473-5.662 11.13-14.156 11.13-5.19 0-10.617-1.43-14.785-3.896zm36.732 2.778V54h7.792v36.882h-7.793zm51.203-22.625v22.625h-7.7v-21.27c0-6.293-3.142-8.923-8.328-8.923-5.657 0-9.666 3.425-9.666 12.586v17.606h-7.7V54.077h7.7v5.577h.158c2.358-4.222 6.286-6.772 11.867-6.772 7.778 0 13.67 4.222 13.67 15.375zm19.46-7.524v19.2c0 2.62 1.08 3.81 3.704 3.81h1.852v7.14h-3.473c-6.252 0-9.648-3.412-9.648-9.442V60.734h-6.33v-6.585h6.33V39.47h7.564V54.15h7.255v6.585h-7.256zm50.666 11.708c0 11.292-8.552 19.56-20.035 19.56s-20.036-8.268-20.036-19.56c0-11.29 8.553-19.558 20.037-19.558 11.484 0 20.036 8.27 20.036 19.56zm-31.167 0c0 7.12 4.784 11.736 11.688 11.736 6.903 0 11.686-4.616 11.686-11.735 0-7.118-4.783-11.734-11.686-11.734-6.904 0-11.69 4.616-11.69 11.735zM528.927 54l-12.134 36.882h-7.044l-8.61-26.423-8.69 26.422h-7.044L473.272 54h8.455l7.28 26.584L497.382 54h7.435l8.376 26.584L520.474 54h8.454zM569 68.257v22.625h-7.7v-21.27c0-6.293-3.143-8.923-8.33-8.923-5.656 0-9.664 3.425-9.664 12.586v17.606h-7.7V54.077h7.7v5.577h.158c2.358-4.222 6.286-6.772 11.865-6.772 7.777 0 13.67 4.222 13.67 15.375zm-209.265-27.67c0 3.087-2.49 5.59-5.565 5.59-3.074 0-5.566-2.503-5.566-5.59 0-3.085 2.492-5.587 5.566-5.587 3.075 0 5.565 2.502 5.565 5.588z" fill="#FFF"/><g fill="#00CEC8"><path d="M102 67h15V27h-15M82 67h15V48H82M63 67h15V48H63"/><path d="M44 27v77.99h56.824l1.07.01H117V72.26H63.385v14.315h38.51v4.097H59.108V27"/></g></g></svg>